<svg xmlns="http://www.w3.org/2000/svg" xmlns:xlink="http://www.w3.org/1999/xlink" version="1.1" width="500pt" height="500pt" viewBox="0 0 500 500">
<defs>
<clipPath id="clip_0">
<path transform="matrix(1,0,0,-1,0,500)" d="M10.075 209.591H489.92604V290.40803H10.075Z"/>
</clipPath>
</defs>
<g id="layer_1" data-name="Layer 1">
<g clip-path="url(#clip_0)">
<path transform="matrix(1,0,0,-1,211.1069,277.2754)" d="M0 0 1.515 2.02C2.525 2.525 2.525 3.535 2.525 4.546 2.525 5.556 2.525 6.566 1.01 7.577 .505 8.587-.505 9.092-2.021 9.597-6.975 10.683-11.858 12.03-16.668 13.638L-22.225 17.174C-24.245 18.184-25.255 19.698-26.266 21.214L-27.781 27.275C-27.781 29.801-27.276 31.821-26.266 33.337-25.255 35.357-23.74 37.378-21.72 38.388-20.205 39.903-17.679 41.419-15.658 41.923-10.776 43.586-5.893 43.586-1.01 41.923 1.01 41.923 3.031 40.914 5.051 39.398L9.092 35.357C10.607 33.842 11.112 31.821 11.617 30.306L1.01 27.275C1.01 28.791-.505 30.306-2.021 31.317-3.816 32.664-5.837 33.337-8.082 33.337-10.199 33.582-12.22 33.245-14.143 32.327L-16.164 30.306-17.174 27.781-16.164 25.256-13.638 23.234-10.607 22.225-7.577 21.214 2.525 18.184 9.092 14.648C10.607 13.133 11.617 11.617 12.123 9.597 13.133 8.587 13.133 6.566 13.133 4.546 13.133 2.02 13.133-.505 11.617-2.021 10.607-4.04 9.092-6.062 7.071-7.576 5.051-9.092 2.525-10.607 0-11.112-2.526-12.123-5.556-12.628-8.587-12.628-13.638-12.628-17.679-11.617-21.72-9.092-25.255-6.566-27.781-4.04-29.296 0L-19.194 4.041C-18.184 1.516-16.668 0-14.648-1.011-13.133-2.021-10.607-2.525-8.082-2.525-5.051-2.525-3.031-1.516-.505 0ZM50.51-11.112 40.914-13.133C37.883-13.133 35.357-13.133 32.832-11.617 30.306-10.607 28.286-8.587 26.771-6.062 25.255-3.536 24.75 .505 24.75 5.556V30.812H15.153V42.429H17.679C20.709 42.429 23.74 42.934 25.255 45.965 26.265 46.975 26.265 48.49 26.265 52.026V56.067H36.368V42.429H47.48V30.306H35.862V-.505L38.388-3.03 42.429-3.536H48.49ZM85.868 32.327 84.353 33.337H81.827L80.312 33.842C75.94 33.932 72.067 32.585 68.694 29.801L65.664 25.76C64.654 24.245 64.654 22.225 64.654 20.709V-13.133H53.036V42.429H62.128L64.148 35.863C65.664 38.388 67.684 39.903 70.209 40.914 73.196 42.566 76.394 43.408 79.807 43.439L88.393 42.429 85.363 32.327ZM114.659-12.628C108.969-12.612 103.743-11.048 98.981-7.934 94.218-4.82 90.689-.66 88.393 4.546 86.878 8.081 85.868 11.617 85.868 15.658 85.874 21.217 87.386 26.329 90.406 30.995 93.425 35.662 97.469 39.136 102.537 41.419 109.44 44.191 116.342 44.191 123.246 41.419 126.276 40.408 129.307 38.388 131.328 35.863 133.853 33.337 135.874 29.801 136.883 25.76 138.399 21.214 138.904 16.669 138.904 10.607H97.991C97.991 8.587 99 7.071 100.516 5.556 102.751 2.076 105.782-.449 109.608-2.021L116.174-3.03C121.619-3.038 126.333-1.186 130.317 2.525L137.389-4.04C134.421-6.729 131.054-8.749 127.287-10.102 123.75-11.617 119.205-12.628 114.659-12.628M112.638 33.842C111.124 33.842 109.103 33.842 107.587 32.832 104.264 31.329 101.739 28.972 100.011 25.76 99 24.245 97.991 22.225 97.991 20.709H126.782C126.782 22.225 126.782 23.74 125.771 25.76 124.595 28.426 122.753 30.501 120.248 31.987 117.741 33.472 115.037 34.09 112.133 33.842ZM198.506 42.429V-12.628H189.415L187.394-5.052C185.878-7.576 183.353-9.598 180.323-10.607 177.292-12.123 174.261-12.628 171.231-12.628 163.497-12.78 156.93-10.086 151.532-4.546 148.878-1.853 146.835 1.242 145.402 4.741 143.968 8.239 143.251 11.878 143.251 15.658 143.251 19.438 143.968 23.078 145.402 26.576 146.835 30.074 148.878 33.169 151.532 35.863 156.98 41.281 163.546 43.975 171.231 43.944 174.261 43.944 177.292 42.934 179.818 41.923 182.848 40.914 185.374 38.893 187.394 36.873L189.415 42.429H199.011ZM171.231-3.03 177.292-1.516C179.313-.505 181.333 1.01 182.343 2.525 185.751 6.24 187.435 10.617 187.394 15.658 187.336 20.661 185.653 25.038 182.343 28.791 181.333 30.306 179.313 31.821 177.292 32.832 173.083 34.932 168.874 34.932 164.665 32.832L159.614 28.791C156.206 25.076 154.521 20.699 154.562 15.658 154.62 10.655 156.303 6.277 159.614 2.525L164.665-1.516C166.685-2.525 168.706-3.03 171.231-3.03M218.206-12.628H207.093V42.934H215.68L218.206 37.883C219.216 39.398 221.236 40.914 223.256 41.923 224.772 42.934 227.297 43.944 229.823 43.944 234.407 43.877 238.448 42.361 241.946 39.398L245.481 35.357C246.492 37.378 248.512 39.398 251.038 41.419 253.639 43.146 256.501 43.987 259.625 43.944L266.191 42.934C271.421 41.246 275.125 37.878 277.303 32.832 278.313 29.801 278.819 25.76 278.819 21.214V-12.628H268.716V21.214C268.716 26.266 267.201 29.296 265.18 31.317 263.666 32.832 260.634 33.842 257.604 33.842 255.079 33.842 252.553 32.832 251.038 30.812 249.522 28.791 248.512 25.76 248.512 21.214V-12.628H237.905V21.214C237.905 26.266 236.895 29.296 234.875 31.317 232.854 32.832 230.329 33.842 227.297 33.842 224.772 33.842 222.751 32.832 221.237 31.317 219.216 29.296 218.206 26.771 218.206 23.234V-12.123Z" fill-rule="evenodd"/>
<path transform="matrix(1,0,0,-1,117.6621,235.35211)" d="M0 0 52.531 3.536C56.067 3.536 58.592 0 56.572-2.525L19.699-53.036C18.689-53.541 17.679-54.551 16.164-54.551H-66.674C-68.024-54.388-69.034-53.714-69.705-52.531L-106.577-2.525C-108.598 0-106.577 4.042-103.042 3.536L-50.511 0-28.286 24.246C-26.771 26.266-23.235 26.266-22.225 24.246L0 .505ZM11.112-46.469-23.235-33.842V-46.469ZM-27.275-46.469V-33.842L-61.623-46.469H-26.771ZM-31.316-31.316-66.169-43.944-91.424-8.586-30.812-30.811ZM-19.194-31.316 16.164-43.944 41.419-8.586-19.194-30.811ZM-27.275-28.286V13.638L-55.562-17.678-27.275-27.781ZM-23.235-28.286V13.638L5.556-17.678-23.235-27.781ZM-64.148-14.648-57.582-7.576-89.909-5.556ZM13.638-14.648 7.072-7.576 38.893-5.556Z" fill="#006cff" fill-rule="evenodd"/>
</g>
</g>
</svg>
